<svg class="icon" xmlns="http://www.w3.org/2000/svg" viewBox="0 0 473.939 473.939"><circle cx="236.969" cy="236.967" r="236.967" fill="#495057"/><path d="M404.527 69.384c92.542 92.542 92.546 242.588-.004 335.137-92.546 92.543-242.595 92.543-335.137 0l335.14-335.136z" fill="#495057"/><path d="M471.95 267.16L336.396 131.606l-28.06 28.06-29.938-29.938-38.013 6.93-13.122 5.545-42.38-8.037-38.042 23.697-7.295 72.067 59.244 59.244-36.356 7.76-34.926 16.838-9.167 55.85 103.81 103.812c4.904.3 9.83.505 14.805.505 120.635-.005 220.147-90.17 234.995-206.78z" fill="#495057"/><g fill="#0097A7"><path d="M235.648 141.99c2.193 1.355 4.636 3.33 7.36 5.93 2.615 2.714 5.17 6.05 7.682 9.992 2.402 3.734 4.53 8.127 6.39 13.212 1.524 5.078 2.287 11.012 2.287 17.788-.198 12.423-2.945 22.357-8.232 29.818-2.574 3.61-5.32 6.94-8.217 9.998-3.207 3.035-6.62 6.15-10.23 9.31-2.08 2.144-3.98 4.57-5.744 7.285-2.065 2.82-3.102 6.092-3.102 9.815 0 3.64 1.06 6.623 3.188 8.988 1.792 2.26 3.555 4.24 5.253 5.934l11.783 9.654c7.315 6.002 13.736 12.572 19.255 19.805 5.198 7.352 7.9 16.946 8.132 28.796 0 16.827-7.44 31.727-22.3 44.73-15.395 13.447-37.64 20.38-66.695 20.826-24.325-.22-42.484-5.407-54.484-15.536-12.093-9.478-18.16-20.8-18.16-33.99 0-6.417 1.962-13.594 5.92-21.482 3.81-7.876 10.73-14.817 20.753-20.793 11.237-6.412 23.053-10.7 35.438-12.852 12.258-1.792 22.432-2.818 30.54-3.035-2.507-3.3-4.74-6.818-6.698-10.56-2.286-3.636-3.42-8.018-3.42-13.11 0-3.065.43-5.635 1.302-7.667.76-2.17 1.474-4.135 2.118-5.964-3.944.445-7.667.68-11.147.68-18.493-.235-32.584-6.05-42.28-17.447-10.158-10.63-15.232-22.993-15.232-37.1 0-17.06 7.184-32.52 21.57-46.413 9.872-8.127 20.128-13.418 30.766-15.925 10.537-2.144 20.41-3.214 29.616-3.214h69.45l-21.443 12.524h-21.422v.003zm13.407 199.893c0-8.82-2.874-16.486-8.61-23.034-6.092-6.21-15.596-13.827-28.535-22.875-2.223-.236-4.82-.34-7.798-.34-1.77-.218-6.305 0-13.598.676-7.188 1.02-14.548 2.658-22.065 4.918-1.775.674-4.252 1.695-7.458 3.046-3.203 1.47-6.466 3.566-9.79 6.27-3.206 2.822-5.92 6.32-8.12 10.512-2.555 4.408-3.808 9.714-3.808 15.918 0 12.206 5.512 22.26 16.565 30.17 10.513 7.9 24.878 11.962 43.13 12.198 16.364-.236 28.86-3.843 37.475-10.844 8.408-6.903 12.61-15.76 12.61-26.615zm-48.407-101.79c9.14-.338 16.76-3.63 22.847-9.857 2.945-4.412 4.83-8.94 5.67-13.58.504-4.64.762-8.534.762-11.715 0-13.68-3.506-27.5-10.507-41.402-3.29-6.668-7.615-12.112-12.977-16.295-5.474-3.944-11.768-6.047-18.877-6.275-9.414.228-17.227 4.02-23.472 11.38-5.26 7.688-7.78 16.29-7.543 25.8 0 12.553 3.668 25.612 11.017 39.202 3.562 6.335 8.146 11.708 13.788 16.123 5.624 4.42 12.05 6.62 19.293 6.62zM372.59 167.4h-36.433v-36.452H318.5V167.4h-36.435v17.65H318.5v36.438h17.657V185.05h36.433"/></g></svg>